<?xml version="1.0" encoding="UTF-8"?>
<svg id="Layer_1" data-name="Layer 1" xmlns="http://www.w3.org/2000/svg" viewBox="0 0 1000 1000">
  <defs>
    <style>
      .cls-1 {
        fill: #172a3a;
        stroke-width: 0px;
      }
    </style>
  </defs>
  <path class="cls-1" d="M623.15,499.26c-1.09.04-2.19.05-3.3.05-57.04,0-103.27-46.23-103.27-103.27,0-2.08.06-4.15.18-6.19-.13-2.15-.18-4.3-.18-6.46v-218.66c11.04.13,22.1.37,33.16.78,59.07,2.05,118.35,7.95,176.77,18.28,8.35,1.46,15.78,6.24,20.54,13.28,19.02,28.1,32.38,53.94,41.72,74.76,0,0,16.54,36.92,27.75,79.06,3.65,13.71,6.8,27.73,9.43,42.05,1.24,6.7,2.35,13.48,3.37,20.32v.04c.61,4.09,1.17,8.24,1.69,12.41,1.69,13.38,2.93,26.99,3.69,40.77h111.57c-.17-2.2-.35-4.41-.54-6.59-.06-.72-.13-1.45-.2-2.2-.17-1.87-.35-3.72-.56-5.58-.31-3.04-.67-6.06-1.06-9.11-.19-1.54-.39-3.05-.61-4.57-.13-1-.28-1.96-.43-2.94-.26-1.78-.52-3.62-.82-5.39-.28-1.82-.56-3.59-.87-5.39-.3-1.76-.61-3.58-.94-5.35-.31-1.76-.65-3.56-1-5.33-.35-1.74-.7-3.54-1.07-5.3-.72-3.52-1.5-7.04-2.32-10.54-.41-1.76-.83-3.48-1.26-5.22-.06-.24-.11-.47-.17-.69-.44-1.74-.87-3.54-1.35-5.3-.5-1.98-1.04-3.96-1.57-5.93-.56-1.96-1.11-3.93-1.67-5.89-.28-.96-.57-1.97-.87-2.93-.3-1-.59-1.97-.89-2.96-1.09-3.58-2.2-7.11-3.39-10.67-.59-1.76-1.18-3.52-1.8-5.3-.61-1.76-1.24-3.52-1.87-5.26-1.2-3.35-2.46-6.7-3.76-10.04-.11-.3-.24-.61-.37-.94-1.28-3.26-2.59-6.52-3.95-9.76-.65-1.54-1.28-3.05-1.94-4.55-.65-1.52-1.3-3.02-1.98-4.52-.63-1.43-1.26-2.83-1.91-4.24-.85-1.89-1.72-3.76-2.61-5.61-.57-1.19-1.13-2.36-1.7-3.52-1.45-2.96-2.91-5.89-4.41-8.8-.98-1.94-1.98-3.87-3-5.78-1.02-1.91-2.04-3.82-3.07-5.69-1.06-1.91-2.11-3.8-3.17-5.65-.82-1.46-1.65-2.89-2.46-4.3-1.33-2.32-2.7-4.61-4.11-6.89-2.24-3.69-4.54-7.33-6.89-10.95-1.17-1.81-2.35-3.59-3.56-5.41-2.35-3.48-4.74-6.97-7.17-10.41-.05-.08-.11-.15-.17-.22-1.24-1.74-2.5-3.48-3.78-5.22-1.26-1.73-2.54-3.41-3.82-5.11,0-.06-.04-.09-.07-.11-1.28-1.65-2.56-3.33-3.84-4.98-.02-.05-.04-.09-.09-.11-2.59-3.33-5.22-6.61-7.87-9.84-.04-.07-.09-.13-.17-.18-1.37-1.67-2.76-3.3-4.15-4.93-1.74-2.07-3.5-4.11-5.28-6.13-1.78-2.02-3.57-4.02-5.39-6-1.82-1.98-3.65-3.95-5.5-5.91-1.85-1.97-3.72-3.89-5.61-5.8-1.09-1.15-2.2-2.26-3.32-3.35-2.2-2.2-4.45-4.41-6.72-6.56-1-.96-2.02-1.91-3.04-2.89-1.26-1.2-2.52-2.37-3.81-3.52-1-.93-1.98-1.83-2.98-2.74-.3-.26-.59-.52-.91-.8-1.04-.92-2.07-1.85-3.11-2.74-1.18-1.04-2.37-2.08-3.56-3.11-1.19-1.02-2.37-2.04-3.58-3.02-1.18-1.04-2.39-2.06-3.61-3.02-2.43-2.02-4.85-3.98-7.32-5.91-2.48-2.02-5.02-3.96-7.58-5.87-1.22-.93-2.43-1.83-3.65-2.72-1.26-.94-2.52-1.87-3.8-2.8-1.28-.91-2.56-1.84-3.83-2.72-2.56-1.83-5.15-3.63-7.74-5.39-2.61-1.76-5.22-3.5-7.87-5.2-3.54-2.3-7.13-4.54-10.74-6.74-3.09-1.89-6.24-3.74-9.41-5.56-2.74-1.57-5.5-3.11-8.26-4.63-1.28-.71-2.54-1.39-3.82-2.08-.19-.11-.39-.22-.59-.31-1.31-.68-2.63-1.39-3.96-2.07-1.41-.72-2.82-1.45-4.22-2.15-2.11-1.1-4.24-2.15-6.37-3.19-2.15-1.03-4.3-2.04-6.45-3.05-4.3-2-8.65-3.95-13.04-5.82-4.35-1.91-8.76-3.69-13.19-5.41-.04-.02-.07-.04-.13-.08-4.43-1.72-8.89-3.39-13.39-4.96-3.02-1.07-6.06-2.09-9.1-3.09-3.06-1.02-6.11-1.97-9.19-2.93-1.72-.52-3.45-1.06-5.19-1.56-2.89-.81-5.8-1.63-8.73-2.44-3.11-.83-6.24-1.65-9.39-2.43-3.13-.78-6.3-1.5-9.47-2.2-1.98-.46-3.96-.91-5.95-1.3-4.46-.92-8.96-1.81-13.48-2.63-1.52-.26-3.02-.54-4.54-.78-8.08-1.31-16.23-2.46-24.43-3.37-4.11-.46-8.22-.83-12.35-1.18-12.32-1.04-24.79-1.57-37.38-1.57-5.56,0-11.08.09-16.58.31v330.58c0,4.06-.2,8.08-.63,12.08v.57c0,57.04-46.24,103.27-103.27,103.27-.94,0-1.87-.02-2.82-.04h-.05c-3.15.26-6.34.39-9.52.39h-202.74c0-11.17.31-22.21.93-33.18.76-13.78,2-27.39,3.69-40.77.52-4.17,1.07-8.32,1.69-12.41v-.04c1.02-6.84,2.13-13.62,3.37-20.32,2.63-14.32,5.78-28.34,9.43-42.05,11.21-42.14,27.75-79.06,27.75-79.06,9.34-20.82,22.69-46.66,41.72-74.76,4.76-7.02,12.17-11.82,20.52-13.28,58.42-10.33,117.7-16.23,176.79-18.32V55.26c-8.21.91-16.36,2.06-24.43,3.37-1.52.24-3.02.52-4.54.78-4.52.82-9.02,1.71-13.49,2.63-1.98.39-3.96.83-5.95,1.3-3.17.71-6.34,1.43-9.47,2.2-3.15.78-6.28,1.59-9.39,2.43-2.93.82-5.84,1.63-8.72,2.44-1.74.5-3.46,1.04-5.19,1.56-3.07.96-6.13,1.91-9.19,2.93-3.04,1-6.08,2.02-9.1,3.09-4.5,1.57-8.97,3.24-13.39,4.96-.06.04-.09.05-.13.08-4.43,1.72-8.84,3.5-13.19,5.41-4.39,1.87-8.74,3.82-13.04,5.82-2.15,1.02-4.3,2.02-6.45,3.05-2.13,1.04-4.26,2.09-6.37,3.19-1.41.7-2.82,1.42-4.22,2.15-1.33.68-2.65,1.39-3.96,2.07-.2.09-.41.2-.59.31-1.28.69-2.54,1.37-3.81,2.08-2.76,1.52-5.52,3.06-8.26,4.63-3.17,1.81-6.32,3.67-9.41,5.56-3.61,2.2-7.21,4.45-10.74,6.74-2.65,1.7-5.26,3.44-7.87,5.2-2.59,1.76-5.19,3.56-7.74,5.39-1.28.89-2.56,1.81-3.83,2.72-1.28.92-2.54,1.85-3.8,2.8-1.22.89-2.43,1.8-3.65,2.72-2.56,1.91-5.09,3.85-7.58,5.87-2.46,1.91-4.91,3.89-7.32,5.91-1.22.96-2.43,1.98-3.61,3.02-1.2.98-2.39,2-3.58,3.02-1.19,1.04-2.37,2.08-3.56,3.11-1.04.89-2.07,1.81-3.11,2.74-.31.28-.61.54-.91.8-1,.91-1.98,1.81-2.98,2.74-1.3,1.15-2.56,2.32-3.82,3.52-1.02.98-2.04,1.93-3.04,2.89-2.28,2.15-4.52,4.35-6.73,6.56-1.11,1.13-2.22,2.22-3.31,3.35-1.89,1.91-3.76,3.83-5.61,5.8-1.85,1.96-3.69,3.93-5.5,5.91-1.81,1.98-3.61,3.98-5.39,6-1.78,2.02-3.54,4.06-5.28,6.13-1.39,1.63-2.78,3.26-4.15,4.93-.07.05-.13.11-.17.18-2.65,3.23-5.28,6.5-7.87,9.84-.06.02-.07.06-.09.11-1.28,1.65-2.56,3.34-3.83,4.98-.04.02-.07.06-.07.11-1.28,1.7-2.56,3.39-3.82,5.11-1.28,1.74-2.54,3.48-3.78,5.22-.06.08-.11.15-.17.22-2.43,3.45-4.82,6.93-7.17,10.41-1.2,1.81-2.39,3.59-3.56,5.41-2.35,3.61-4.65,7.26-6.89,10.95-1.41,2.28-2.78,4.57-4.11,6.89-.81,1.41-1.65,2.83-2.46,4.3-1.06,1.85-2.11,3.74-3.17,5.65-1.04,1.87-2.06,3.78-3.07,5.69-1.02,1.91-2.02,3.83-3,5.78-1.5,2.91-2.96,5.83-4.41,8.8-.57,1.17-1.13,2.33-1.7,3.52-.89,1.85-1.76,3.72-2.61,5.61-.65,1.41-1.28,2.81-1.91,4.24-.69,1.5-1.34,3-1.98,4.52-.67,1.5-1.3,3.02-1.95,4.55-1.39,3.28-2.72,6.61-4.04,9.99-.07.16-.15.37-.22.57-.69,1.74-1.35,3.5-2.02,5.3-1.26,3.37-2.48,6.74-3.67,10.15-.61,1.78-1.22,3.54-1.8,5.3-1.17,3.56-2.3,7.13-3.39,10.69-.54,1.8-1.07,3.54-1.59,5.32-.63,2.15-1.24,4.3-1.83,6.45-.54,1.97-1.08,3.94-1.57,5.93-.48,1.76-.91,3.56-1.35,5.3-.05.22-.11.44-.17.69-.43,1.74-.85,3.46-1.26,5.22-.81,3.5-1.59,7.02-2.32,10.54-.37,1.76-.72,3.55-1.07,5.3-.35,1.78-.69,3.57-1,5.33-.33,1.78-.65,3.59-.94,5.35-.31,1.8-.59,3.57-.87,5.39-.3,1.78-.55,3.61-.81,5.39-.15.98-.3,1.94-.43,2.94-.22,1.52-.43,3.04-.61,4.57-.39,3.06-.74,6.08-1.06,9.11-.2,1.85-.39,3.71-.55,5.58-.07.76-.15,1.48-.2,2.2-.18,2.19-.37,4.39-.54,6.59-.28,3.7-.52,7.43-.7,11.19-.07,1.65-.15,3.35-.2,5.02-.08,2.04-.15,4.04-.19,6.06-.06,1.81-.09,3.65-.11,5.48-.02,1.78-.04,3.59-.04,5.43v.39c0,2.54.02,5.08.08,7.58.04,2.24.09,4.5.17,6.76.18,6.15.5,12.3.94,18.41h315.52c1.78,0,3.54.04,5.3.11h.15c1.61-.08,3.24-.11,4.87-.11,56.65,0,102.64,45.62,103.25,102.12t0,.04s.02.02,0,.04c.43,4,.65,8.08.65,12.13v187.76c-11.04-.13-22.1-.37-33.16-.76-59.26-2.08-118.7-8.04-177.29-18.4-8.41-1.48-15.86-6.32-20.62-13.41-18.8-28.02-32.05-53.83-41.33-74.61,0,0-16.62-37.25-27.66-79.01-3.41-12.87-6.39-26.06-8.91-39.47-.18-.94-.37-1.89-.54-2.87-1.96-10.67-3.61-21.47-4.96-32.43-.33-2.65-.65-5.3-.94-7.96H57.34c.2,1.35.41,2.71.61,4.04.33,2.17.69,4.32,1.06,6.45.28,1.63.57,3.24.87,4.84.28,1.52.56,3.04.85,4.54,2.17,11.2,4.76,22.23,7.74,33.06.52,1.83,1.04,3.67,1.56,5.5.57,1.98,1.17,3.94,1.78,5.93.48,1.59.96,3.2,1.46,4.76,1.5,4.74,3.08,9.46,4.72,14.13,3,8.52,6.26,16.95,9.76,25.19.68,1.61,1.37,3.2,2.07,4.78.65,1.48,1.3,2.96,1.96,4.46.11.24.24.5.35.76.7,1.57,1.43,3.13,2.17,4.69.54,1.17,1.07,2.32,1.63,3.46.33.72.69,1.46,1.06,2.2,3.93,8.11,8.1,16.1,12.5,23.95.76,1.33,1.52,2.68,2.3,4.02,2.69,4.69,5.46,9.32,8.32,13.93.96,1.52,1.93,3.04,2.89,4.54,1.95,3.02,3.91,6.02,5.93,9.02,1,1.48,2.02,2.95,3.04,4.43,3.08,4.41,6.22,8.78,9.45,13.1,1.06,1.44,2.15,2.85,3.24,4.28,1.09,1.43,2.19,2.85,3.3,4.26.89,1.15,1.8,2.32,2.72,3.45.65.82,1.3,1.61,1.96,2.39.67.87,1.35,1.69,2.06,2.52,1.5,1.84,3.02,3.67,4.57,5.45,1.22,1.48,2.46,2.91,3.72,4.35,1.89,2.17,3.82,4.32,5.76,6.45.85.96,1.7,1.89,2.57,2.81,2.87,3.13,5.8,6.19,8.74,9.21,1.17,1.21,2.33,2.37,3.5,3.54,1.26,1.28,2.54,2.5,3.82,3.76,2.56,2.5,5.15,4.96,7.78,7.41,1.3,1.22,2.63,2.43,3.95,3.65,2.65,2.39,5.34,4.76,8.04,7.11,4.06,3.54,8.19,6.97,12.35,10.36,8.37,6.74,17,13.19,25.84,19.3,2.95,2.04,5.93,4.07,8.91,6.06h.02c3,1.97,6.02,3.89,9.08,5.8,2.48,1.56,4.96,3.07,7.48,4.57,6.54,3.91,13.19,7.65,19.95,11.21,1.87,1.02,3.76,1.98,5.65,2.98,3.78,1.91,7.6,3.82,11.45,5.65,1.93.89,3.85,1.79,5.8,2.68,4,1.85,8.06,3.63,12.13,5.35,5.02,2.11,10.08,4.15,15.19,6.11,5.09,1.91,10.24,3.76,15.43,5.54.04.02.06.02.09.02,1.72.57,3.43,1.15,5.15,1.72,1.74.54,3.5,1.09,5.24,1.65,3.5,1.11,7.04,2.15,10.58,3.15,2.65.76,5.32,1.48,7.98,2.19,2.67.71,5.37,1.37,8.06,2.05,3.59.85,7.21,1.69,10.82,2.48,1.82.41,3.63.78,5.45,1.15,1.59.33,3.19.65,4.78.94,2.13.43,4.28.81,6.43,1.2,3.46.61,6.96,1.2,10.47,1.74,2.45.37,4.91.72,7.39,1.06,1.24.2,2.5.35,3.74.5.2.06.41.08.61.08,2.33.31,4.69.57,7.04.83,3.8.43,7.63.79,11.47,1.13,1.28.11,2.56.22,3.83.34,3.8.26,7.59.5,11.41.7,1.91.11,3.82.17,5.72.24.24.02.48.02.72.02,1.21.07,2.41.09,3.63.11.74.04,1.48.07,2.22.07.69.02,1.37.02,2.08.04.04.02.09.02.15,0,1.87.08,3.74.09,5.61.09h5.78c.61,0,1.22,0,1.83-.02,3.96-.06,7.91-.15,11.86-.3v-300.05c0-1.87.04-3.74.13-5.59.02-.06,0-.09,0-.15-.09-1.76-.13-3.54-.13-5.32,0-57.04,46.24-103.27,103.27-103.27,1.78,0,3.56.04,5.32.13h.02c1.85-.09,3.74-.13,5.61-.13h203.93c-.61,11.17-1.52,22.23-2.74,33.16-.3,2.67-.61,5.32-.94,7.96-1.35,10.97-3,21.77-4.96,32.43-.17.98-.35,1.93-.54,2.87-2.52,13.41-5.5,26.6-8.91,39.47-11.04,41.77-27.66,79.01-27.66,79.01-9.28,20.78-22.53,46.59-41.33,74.61-4.76,7.08-12.19,11.91-20.58,13.38-58.59,10.39-118.05,16.32-177.33,18.45v110.61c2.35-.26,4.71-.52,7.04-.83.2,0,.41-.02.61-.08,1.24-.15,2.5-.3,3.74-.5,2.48-.33,4.95-.68,7.39-1.06,3.5-.54,7-1.13,10.47-1.74,2.15-.39,4.3-.78,6.43-1.2,1.59-.3,3.19-.61,4.78-.94,1.82-.37,3.63-.74,5.45-1.15,3.61-.8,7.23-1.63,10.82-2.48,2.69-.68,5.39-1.35,8.06-2.05,2.67-.71,5.34-1.43,7.98-2.19,3.54-1,7.08-2.04,10.58-3.15,1.74-.56,3.5-1.11,5.24-1.65,1.72-.57,3.43-1.15,5.15-1.72.04,0,.06,0,.09-.02,5.19-1.78,10.34-3.63,15.43-5.54,5.11-1.96,10.17-4,15.19-6.11,4.08-1.72,8.13-3.5,12.13-5.35,1.95-.89,3.87-1.8,5.8-2.68,3.85-1.84,7.67-3.74,11.45-5.65,1.89-1,3.78-1.96,5.65-2.98,6.76-3.56,13.41-7.3,19.95-11.21,2.52-1.5,5-3.02,7.48-4.57,3.06-1.91,6.08-3.83,9.08-5.8h.02c2.98-1.98,5.96-4.02,8.91-6.06,8.84-6.11,17.47-12.56,25.84-19.3,4.17-3.39,8.3-6.82,12.36-10.36,2.7-2.35,5.39-4.72,8.04-7.11,1.31-1.22,2.65-2.43,3.94-3.65,2.63-2.44,5.22-4.91,7.78-7.41,1.28-1.26,2.56-2.48,3.82-3.76,1.17-1.17,2.33-2.33,3.5-3.54,2.95-3.02,5.87-6.07,8.74-9.21.87-.92,1.72-1.85,2.57-2.81,1.95-2.13,3.87-4.28,5.76-6.45,1.26-1.45,2.5-2.87,3.72-4.35,1.56-1.78,3.08-3.61,4.58-5.45.7-.83,1.39-1.65,2.06-2.52.67-.78,1.31-1.57,1.96-2.39.93-1.13,1.83-2.3,2.72-3.45,1.11-1.41,2.2-2.83,3.3-4.26,1.09-1.42,2.18-2.83,3.24-4.28,3.22-4.32,6.37-8.69,9.45-13.1,1.02-1.48,2.04-2.95,3.04-4.43,2.02-3,3.98-6,5.93-9.02.96-1.5,1.93-3.02,2.89-4.54,2.85-4.61,5.63-9.24,8.32-13.93.78-1.34,1.54-2.69,2.3-4.02,4.41-7.86,8.58-15.84,12.5-23.95.37-.74.72-1.48,1.07-2.2.54-1.15,1.07-2.3,1.61-3.46.74-1.56,1.46-3.11,2.17-4.69.11-.26.24-.52.35-.76.67-1.5,1.32-2.98,1.96-4.46.65-1.42,1.28-2.91,1.89-4.35,1.65-3.87,3.24-7.78,4.76-11.69.61-1.56,1.2-3.09,1.78-4.61,1.17-3.11,2.3-6.2,3.41-9.34.56-1.54,1.09-3.11,1.63-4.67.54-1.57,1.06-3.13,1.57-4.72,1.04-3.15,2.04-6.3,3-9.5.61-1.96,1.18-3.94,1.76-5.91.57-2,1.15-4,1.69-6,.54-1.98,1.07-3.96,1.59-6,2.28-8.72,4.28-17.6,6.02-26.56.3-1.5.57-3.02.85-4.54.3-1.59.59-3.21.87-4.84.37-2.13.72-4.28,1.06-6.45.2-1.33.41-2.68.61-4.04.09-.61.19-1.2.26-1.83.37-2.6.72-5.17,1.06-7.78.28-2.26.55-4.56.8-6.87.07-.55.15-1.13.19-1.69.26-2.28.48-4.57.69-6.89.04-.24.06-.54.08-.79.22-2.43.41-4.85.59-7.3.44-6.11.76-12.26.94-18.41.07-2.26.13-4.52.17-6.76.06-2.5.07-5.04.07-7.58v-.39h-314.63c-3.26,0-6.5-.13-9.73-.41Z"/>
</svg>